<svg width="150" height="30" viewBox="0 0 150 30" fill="none" xmlns="http://www.w3.org/2000/svg">
<g clip-path="url(#clip0_2287_2)">
<path d="M39.5531 21.2191C38.6866 21.2191 37.872 21.0482 37.1093 20.7065C36.3465 20.3587 35.6753 19.8797 35.0956 19.2695C34.5221 18.6593 34.0705 17.9545 33.741 17.1552C33.4176 16.3497 33.2559 15.4894 33.2559 14.5741C33.2559 13.6527 33.4176 12.7923 33.741 11.993C34.0705 11.1875 34.5221 10.4828 35.0956 9.87868C35.6753 9.26849 36.3465 8.79254 37.1093 8.45084C37.872 8.10303 38.6866 7.92912 39.5531 7.92912C40.5904 7.92912 41.5453 8.17015 42.4179 8.6522C43.2905 9.12815 44.0136 9.76579 44.5871 10.5651L42.5918 11.636C42.2318 11.1906 41.7833 10.8336 41.2463 10.5651C40.7155 10.2967 40.1511 10.1624 39.5531 10.1624C38.9917 10.1624 38.4639 10.2784 37.9696 10.5102C37.4754 10.736 37.0421 11.0533 36.6699 11.4621C36.2977 11.8648 36.0079 12.3347 35.8004 12.8717C35.5929 13.4025 35.4892 13.97 35.4892 14.5741C35.4892 15.1843 35.5929 15.7548 35.8004 16.2857C36.014 16.8165 36.3069 17.2864 36.6791 17.6952C37.0513 18.0979 37.4815 18.4152 37.9696 18.6471C38.4639 18.8729 38.9917 18.9858 39.5531 18.9858C40.1633 18.9858 40.7307 18.8515 41.2555 18.583C41.7864 18.3084 42.2318 17.9484 42.5918 17.503L44.5871 18.583C44.0136 19.3763 43.2905 20.0139 42.4179 20.496C41.5453 20.978 40.5904 21.2191 39.5531 21.2191ZM49.859 21.2191C49.017 21.2191 48.2481 21.0024 47.5525 20.5692C46.863 20.136 46.3108 19.5563 45.8958 18.8302C45.487 18.0979 45.2826 17.2894 45.2826 16.4047C45.2826 15.7334 45.4016 15.108 45.6396 14.5283C45.8775 13.9425 46.204 13.43 46.6189 12.9906C47.0399 12.5452 47.5281 12.1974 48.0834 11.9472C48.6386 11.697 49.2305 11.572 49.859 11.572C50.7011 11.572 51.4669 11.7886 52.1564 12.2218C52.852 12.655 53.4042 13.2378 53.8131 13.97C54.228 14.7022 54.4354 15.5138 54.4354 16.4047C54.4354 17.0698 54.3165 17.6922 54.0785 18.2718C53.8405 18.8515 53.511 19.3641 53.09 19.8095C52.675 20.2489 52.1899 20.5936 51.6347 20.8438C51.0855 21.094 50.4936 21.2191 49.859 21.2191ZM49.859 18.9858C50.3045 18.9858 50.7041 18.8668 51.058 18.6288C51.412 18.3908 51.6896 18.0766 51.891 17.6861C52.0984 17.2955 52.2022 16.8684 52.2022 16.4047C52.2022 15.9287 52.0954 15.4955 51.8818 15.105C51.6743 14.7083 51.3906 14.3941 51.0306 14.1622C50.6767 13.9242 50.2862 13.8052 49.859 13.8052C49.4197 13.8052 49.0231 13.9242 48.6692 14.1622C48.3152 14.4002 48.0346 14.7175 47.8271 15.1141C47.6196 15.5107 47.5159 15.9409 47.5159 16.4047C47.5159 16.8867 47.6227 17.323 47.8362 17.7135C48.0498 18.104 48.3336 18.4152 48.6875 18.6471C49.0475 18.8729 49.438 18.9858 49.859 18.9858ZM55.8606 20.9811V11.8282H58.0939V12.6428C58.4051 12.3133 58.7773 12.054 59.2105 11.8648C59.6437 11.6696 60.1105 11.572 60.6109 11.572C61.2455 11.572 61.8282 11.7215 62.3591 12.0204C62.8961 12.3194 63.3232 12.7191 63.6405 13.2195C63.9639 12.7191 64.391 12.3194 64.9219 12.0204C65.4528 11.7215 66.0355 11.572 66.6701 11.572C67.3413 11.572 67.9484 11.7367 68.4915 12.0662C69.0407 12.3896 69.477 12.8259 69.8004 13.3751C70.1299 13.9181 70.2946 14.5253 70.2946 15.1965V20.9811H68.0613V15.7914C68.0613 15.4375 67.9728 15.1141 67.7959 14.8212C67.625 14.5222 67.3932 14.2842 67.1003 14.1073C66.8135 13.9242 66.4901 13.8327 66.1301 13.8327C65.7701 13.8327 65.4436 13.9212 65.1507 14.0981C64.8639 14.269 64.632 14.5009 64.4551 14.7938C64.2781 15.0866 64.1897 15.4192 64.1897 15.7914V20.9811H61.9564V15.7914C61.9564 15.4192 61.8709 15.0866 61.7001 14.7938C61.5292 14.5009 61.2974 14.269 61.0045 14.0981C60.7116 13.9212 60.3851 13.8327 60.0251 13.8327C59.6712 13.8327 59.3478 13.9242 59.0549 14.1073C58.762 14.2842 58.5271 14.5222 58.3501 14.8212C58.1793 15.1141 58.0939 15.4375 58.0939 15.7914V20.9811H55.8606ZM74.3616 25.5575H72.1283V11.8282H74.3616V12.9906C74.6606 12.5757 75.0267 12.2401 75.46 11.9838C75.8993 11.7215 76.4119 11.5903 76.9976 11.5903C77.6688 11.5903 78.2943 11.7154 78.874 11.9655C79.4536 12.2157 79.9632 12.5635 80.4025 13.009C80.8479 13.4483 81.1927 13.9578 81.4368 14.5375C81.6869 15.1172 81.812 15.7396 81.812 16.4047C81.812 17.0698 81.6869 17.6952 81.4368 18.281C81.1927 18.8668 80.8479 19.3824 80.4025 19.8278C79.9632 20.2672 79.4536 20.6119 78.874 20.8621C78.2943 21.1123 77.6688 21.2374 76.9976 21.2374C76.4119 21.2374 75.8993 21.1092 75.46 20.8529C75.0267 20.5906 74.6606 20.2519 74.3616 19.837V25.5575ZM76.9702 13.7412C76.5064 13.7412 76.0915 13.8632 75.7254 14.1073C75.3593 14.3453 75.0725 14.6656 74.865 15.0683C74.6576 15.4711 74.5538 15.9165 74.5538 16.4047C74.5538 16.8928 74.6576 17.3413 74.865 17.7501C75.0725 18.1529 75.3593 18.4763 75.7254 18.7203C76.0915 18.9583 76.5064 19.0773 76.9702 19.0773C77.44 19.0773 77.8702 18.9583 78.2607 18.7203C78.6512 18.4824 78.9624 18.162 79.1943 17.7593C79.4262 17.3505 79.5421 16.8989 79.5421 16.4047C79.5421 15.9165 79.4262 15.4711 79.1943 15.0683C78.9624 14.6656 78.6512 14.3453 78.2607 14.1073C77.8763 13.8632 77.4461 13.7412 76.9702 13.7412ZM87.3106 21.2191C86.4685 21.2191 85.6997 21.0024 85.0041 20.5692C84.3146 20.136 83.7623 19.5563 83.3474 18.8302C82.9386 18.0979 82.7342 17.2894 82.7342 16.4047C82.7342 15.7334 82.8532 15.108 83.0911 14.5283C83.3291 13.9425 83.6556 13.43 84.0705 12.9906C84.4915 12.5452 84.9797 12.1974 85.5349 11.9472C86.0902 11.697 86.6821 11.572 87.3106 11.572C88.1527 11.572 88.9185 11.7886 89.608 12.2218C90.3036 12.655 90.8558 13.2378 91.2646 13.97C91.6796 14.7022 91.887 15.5138 91.887 16.4047C91.887 17.0698 91.768 17.6922 91.5301 18.2718C91.2921 18.8515 90.9626 19.3641 90.5416 19.8095C90.1266 20.2489 89.6415 20.5936 89.0863 20.8438C88.5371 21.094 87.9452 21.2191 87.3106 21.2191ZM87.3106 18.9858C87.756 18.9858 88.1557 18.8668 88.5096 18.6288C88.8635 18.3908 89.1412 18.0766 89.3425 17.6861C89.55 17.2955 89.6537 16.8684 89.6537 16.4047C89.6537 15.9287 89.5469 15.4955 89.3334 15.105C89.1259 14.7083 88.8422 14.3941 88.4822 14.1622C88.1283 13.9242 87.7377 13.8052 87.3106 13.8052C86.8713 13.8052 86.4746 13.9242 86.1207 14.1622C85.7668 14.4002 85.4861 14.7175 85.2787 15.1141C85.0712 15.5107 84.9675 15.9409 84.9675 16.4047C84.9675 16.8867 85.0743 17.323 85.2878 17.7135C85.5014 18.104 85.7851 18.4152 86.139 18.6471C86.499 18.8729 86.8896 18.9858 87.3106 18.9858ZM96.0837 21.1458C95.6078 21.1153 95.1471 21.0207 94.7017 20.8621C94.2623 20.6973 93.8718 20.4746 93.5301 20.1939C93.1884 19.9132 92.926 19.5776 92.743 19.1871L94.6284 18.3817C94.7017 18.5037 94.8207 18.6349 94.9854 18.7752C95.1502 18.9095 95.3454 19.0224 95.5712 19.1139C95.8031 19.2054 96.0563 19.2512 96.3309 19.2512C96.5627 19.2512 96.7824 19.2207 96.9899 19.1597C97.2034 19.0925 97.3743 18.9919 97.5024 18.8576C97.6367 18.7234 97.7038 18.5495 97.7038 18.3359C97.7038 18.1101 97.6245 17.9362 97.4658 17.8142C97.3133 17.6861 97.118 17.5915 96.88 17.5305C96.6482 17.4633 96.4224 17.4023 96.2027 17.3474C95.6231 17.2315 95.083 17.0515 94.5827 16.8074C94.0884 16.5633 93.6888 16.2491 93.3837 15.8646C93.0847 15.4741 92.9352 15.0043 92.9352 14.4551C92.9352 13.851 93.0938 13.3293 93.4111 12.89C93.7345 12.4506 94.1525 12.112 94.6651 11.874C95.1837 11.636 95.742 11.517 96.34 11.517C97.0662 11.517 97.7313 11.6696 98.3353 11.9747C98.9455 12.2737 99.4276 12.6978 99.7815 13.2469L98.015 14.2904C97.9296 14.1439 97.8106 14.0097 97.658 13.8876C97.5055 13.7595 97.3316 13.6558 97.1363 13.5764C96.9411 13.491 96.7366 13.4422 96.5231 13.43C96.2485 13.4178 95.9983 13.4422 95.7725 13.5032C95.5468 13.5642 95.3637 13.668 95.2234 13.8144C95.0891 13.9608 95.022 14.1561 95.022 14.4002C95.022 14.6321 95.1135 14.806 95.2966 14.9219C95.4797 15.0317 95.6993 15.1172 95.9556 15.1782C96.218 15.2392 96.4682 15.3063 96.7061 15.3795C97.2431 15.5565 97.7465 15.7731 98.2164 16.0294C98.6923 16.2857 99.0737 16.5999 99.3605 16.9721C99.6473 17.3443 99.7845 17.7898 99.7723 18.3084C99.7723 18.9003 99.5954 19.419 99.2415 19.8644C98.8876 20.3038 98.4299 20.6394 97.8686 20.8712C97.3133 21.1031 96.7183 21.1946 96.0837 21.1458ZM108.097 11.8282H110.33V20.9811H108.097L107.996 19.8461C107.746 20.255 107.414 20.5875 106.999 20.8438C106.59 21.094 106.105 21.2191 105.543 21.2191C104.866 21.2191 104.231 21.0909 103.64 20.8346C103.048 20.5784 102.526 20.2244 102.074 19.7729C101.629 19.3214 101.278 18.7997 101.022 18.2078C100.772 17.6159 100.647 16.9813 100.647 16.304C100.647 15.6511 100.766 15.0378 101.004 14.4643C101.248 13.8907 101.586 13.3873 102.02 12.954C102.453 12.5208 102.953 12.1821 103.521 11.9381C104.088 11.694 104.698 11.572 105.351 11.572C105.955 11.572 106.495 11.7062 106.971 11.9747C107.453 12.2432 107.862 12.5849 108.198 12.9998L108.097 11.8282ZM105.488 19.0681C105.964 19.0681 106.385 18.9491 106.752 18.7112C107.118 18.4732 107.404 18.1529 107.612 17.7501C107.819 17.3413 107.923 16.8928 107.923 16.4047C107.923 15.9104 107.819 15.4619 107.612 15.0592C107.404 14.6504 107.115 14.327 106.742 14.089C106.376 13.851 105.958 13.732 105.488 13.732C105.019 13.732 104.588 13.8541 104.198 14.0981C103.813 14.3361 103.505 14.6565 103.273 15.0592C103.048 15.4619 102.935 15.9104 102.935 16.4047C102.935 16.8989 103.051 17.3474 103.283 17.7501C103.514 18.1529 103.823 18.4732 104.207 18.7112C104.598 18.9491 105.025 19.0681 105.488 19.0681ZM117.077 11.572C117.968 11.572 118.78 11.7886 119.512 12.2218C120.244 12.655 120.827 13.2378 121.26 13.97C121.693 14.6961 121.91 15.5016 121.91 16.3864C121.91 17.0515 121.785 17.6769 121.535 18.2627C121.284 18.8485 120.937 19.3641 120.491 19.8095C120.052 20.2489 119.539 20.5936 118.953 20.8438C118.374 21.094 117.748 21.2191 117.077 21.2191C116.503 21.2191 115.994 21.0909 115.549 20.8346C115.109 20.5723 114.74 20.2336 114.441 19.8187V20.9811H112.208V7.25181H114.441V12.9723C114.74 12.5574 115.109 12.2218 115.549 11.9655C115.994 11.7031 116.503 11.572 117.077 11.572ZM117.05 19.059C117.526 19.059 117.956 18.94 118.34 18.702C118.731 18.4579 119.042 18.1345 119.274 17.7318C119.506 17.3291 119.622 16.8806 119.622 16.3864C119.622 15.8982 119.506 15.4528 119.274 15.05C119.042 14.6412 118.731 14.3178 118.34 14.0798C117.95 13.8419 117.519 13.7229 117.05 13.7229C116.586 13.7229 116.171 13.8449 115.805 14.089C115.439 14.327 115.152 14.6504 114.944 15.0592C114.737 15.4619 114.633 15.9043 114.633 16.3864C114.633 16.8806 114.737 17.3321 114.944 17.741C115.152 18.1437 115.439 18.464 115.805 18.702C116.171 18.94 116.586 19.059 117.05 19.059ZM123.202 20.9811V7.25181H125.435V20.9811H123.202ZM131.52 21.2191C130.677 21.2191 129.909 21.0024 129.213 20.5692C128.524 20.136 127.971 19.5532 127.556 18.821C127.148 18.0888 126.943 17.2803 126.943 16.3955C126.943 15.7304 127.062 15.108 127.3 14.5283C127.538 13.9425 127.865 13.43 128.279 12.9906C128.7 12.5452 129.189 12.1974 129.744 11.9472C130.299 11.697 130.891 11.572 131.52 11.572C132.233 11.572 132.886 11.7245 133.478 12.0296C134.076 12.3286 134.583 12.7405 134.998 13.2652C135.413 13.79 135.715 14.388 135.904 15.0592C136.093 15.7304 136.136 16.4321 136.032 17.1643H129.341C129.427 17.506 129.567 17.8142 129.762 18.0888C129.957 18.3573 130.205 18.5739 130.504 18.7386C130.803 18.8973 131.141 18.9797 131.52 18.9858C131.91 18.9919 132.264 18.9003 132.581 18.7112C132.905 18.5159 133.173 18.2535 133.387 17.924L135.666 18.4549C135.294 19.2664 134.738 19.9316 134 20.4502C133.262 20.9628 132.435 21.2191 131.52 21.2191ZM129.268 15.4894H133.771C133.704 15.1233 133.561 14.7938 133.341 14.5009C133.127 14.2019 132.862 13.9639 132.545 13.7869C132.227 13.61 131.886 13.5215 131.52 13.5215C131.153 13.5215 130.815 13.61 130.504 13.7869C130.192 13.9578 129.927 14.1927 129.707 14.4917C129.494 14.7846 129.347 15.1172 129.268 15.4894ZM140.293 21.1458C139.817 21.1153 139.356 21.0207 138.911 20.8621C138.471 20.6973 138.081 20.4746 137.739 20.1939C137.397 19.9132 137.135 19.5776 136.952 19.1871L138.837 18.3817C138.911 18.5037 139.03 18.6349 139.194 18.7752C139.359 18.9095 139.554 19.0224 139.78 19.1139C140.012 19.2054 140.265 19.2512 140.54 19.2512C140.772 19.2512 140.991 19.2207 141.199 19.1597C141.412 19.0925 141.583 18.9919 141.711 18.8576C141.846 18.7234 141.913 18.5495 141.913 18.3359C141.913 18.1101 141.833 17.9362 141.675 17.8142C141.522 17.6861 141.327 17.5915 141.089 17.5305C140.857 17.4633 140.631 17.4023 140.412 17.3474C139.832 17.2315 139.292 17.0515 138.792 16.8074C138.297 16.5633 137.898 16.2491 137.593 15.8646C137.294 15.4741 137.144 15.0043 137.144 14.4551C137.144 13.851 137.303 13.3293 137.62 12.89C137.943 12.4506 138.361 12.112 138.874 11.874C139.393 11.636 139.951 11.517 140.549 11.517C141.275 11.517 141.94 11.6696 142.544 11.9747C143.154 12.2737 143.637 12.6978 143.99 13.2469L142.224 14.2904C142.139 14.1439 142.02 14.0097 141.867 13.8876C141.714 13.7595 141.541 13.6558 141.345 13.5764C141.15 13.491 140.946 13.4422 140.732 13.43C140.457 13.4178 140.207 13.4422 139.981 13.5032C139.756 13.5642 139.573 13.668 139.432 13.8144C139.298 13.9608 139.231 14.1561 139.231 14.4002C139.231 14.6321 139.322 14.806 139.506 14.9219C139.689 15.0317 139.908 15.1172 140.165 15.1782C140.427 15.2392 140.677 15.3063 140.915 15.3795C141.452 15.5565 141.955 15.7731 142.425 16.0294C142.901 16.2857 143.283 16.5999 143.569 16.9721C143.856 17.3443 143.993 17.7898 143.981 18.3084C143.981 18.9003 143.804 19.419 143.45 19.8644C143.097 20.3038 142.639 20.6394 142.077 20.8712C141.522 21.1031 140.927 21.1946 140.293 21.1458Z" fill="white"/>
<g clip-path="url(#clip1_2287_2)">
<path d="M15.9438 3.3712C15.2062 2.95325 14.2965 2.95325 13.559 3.3712L4.95413 8.15305L11.1865 11.6073C12.0839 10.673 13.35 10.083 14.7514 10.083C16.1527 10.083 17.4189 10.673 18.3162 11.6073L24.5486 8.14075L15.9438 3.3712ZM12.2928 15.0001C12.2928 13.6479 13.3992 12.5415 14.7514 12.5415C16.1036 12.5415 17.2099 13.6479 17.2099 15.0001C17.2099 16.3522 16.1036 17.4586 14.7514 17.4586C13.3992 17.4586 12.2928 16.3522 12.2928 15.0001ZM3.68799 10.2551L9.99412 13.7585C9.88349 14.1519 9.83431 14.5698 9.83431 15.0001C9.83431 17.2865 11.3955 19.2164 13.5221 19.7573V26.6043L4.95413 21.8471C4.1674 21.4168 3.68799 20.5932 3.68799 19.6959V10.2551ZM15.9806 26.6043V19.7573C18.1073 19.2164 19.6684 17.2865 19.6684 15.0001C19.6684 14.5698 19.6193 14.1519 19.5086 13.7585L25.8148 10.2551V19.6959C25.8148 20.5932 25.3353 21.4168 24.5486 21.8471L15.9806 26.6043Z" fill="#E91E63"/>
</g>
</g>
<defs>
<clipPath id="clip0_2287_2">
<rect width="150" height="29.5024" fill="white" transform="translate(0 0.248901)"/>
</clipPath>
<clipPath id="clip1_2287_2">
<rect width="29.5024" height="29.5024" fill="white" transform="translate(0 0.248901)"/>
</clipPath>
</defs>
</svg>
